<?xml version="1.0" encoding="UTF-8"?>
<svg xmlns="http://www.w3.org/2000/svg" viewBox="0 0 64 64" width="64" height="64">
  <defs>
    <linearGradient id="logoGradLight" x1="0%" y1="0%" x2="100%" y2="100%">
      <stop offset="0%" stop-color="#0066ff" />
      <stop offset="50%" stop-color="#0044cc" />
      <stop offset="100%" stop-color="#2200aa" />
    </linearGradient>
  </defs>

  <polygon points="32,4 58,18 58,46 32,60 6,46 6,18" fill="none" stroke="url(#logoGradLight)" stroke-width="2.5" stroke-linejoin="round" opacity="0.9" />
  <polygon points="32,14 48,24 48,40 32,50 16,40 16,24" fill="none" stroke="url(#logoGradLight)" stroke-width="1.5" stroke-linejoin="round" opacity="0.5" />
  <path d="M32,4 L32,14 M58,18 L48,24 M58,46 L48,40 M32,60 L32,50 M6,46 L16,40 M6,18 L16,24" stroke="url(#logoGradLight)" stroke-width="1" opacity="0.6" />
  <circle cx="32" cy="32" r="6" fill="url(#logoGradLight)" opacity="0.9" />
  <circle cx="32" cy="32" r="3" fill="#ffffff" opacity="0.9" />
</svg>
